HIERARCHY
ROOT Hips
{
	OFFSET 0.00000 0.00000 0.00000
	CHANNELS 6 Xposition Yposition Zposition Zrotation Yrotation Xrotation 
	JOINT LHipJoint
	{
		OFFSET 0 0 0
		CHANNELS 3 Zrotation Yrotation Xrotation
		JOINT LeftUpLeg
		{
			OFFSET 1.81638 -1.86202 0.89635
			CHANNELS 3 Zrotation Yrotation Xrotation
			JOINT LeftLeg
			{
				OFFSET 2.63464 -7.23861 0.00000
				CHANNELS 3 Zrotation Yrotation Xrotation
				JOINT LeftFoot
				{
					OFFSET 2.45871 -6.75336 0.00000
					CHANNELS 3 Zrotation Yrotation Xrotation
					JOINT LeftToeBase
					{
						OFFSET 0.34235 -0.94059 2.20020
						CHANNELS 3 Zrotation Yrotation Xrotation
						End Site
						{
							OFFSET 0.00000 -0.00000 1.18611
						}
					}
				}
			}
		}
	}
	JOINT RHipJoint
	{
		OFFSET 0 0 0
		CHANNELS 3 Zrotation Yrotation Xrotation
		JOINT RightUpLeg
		{
			OFFSET -1.84405 -1.86203 0.89635
			CHANNELS 3 Zrotation Yrotation Xrotation
			JOINT RightLeg
			{
				OFFSET -2.71067 -7.44751 0.00000
				CHANNELS 3 Zrotation Yrotation Xrotation
				JOINT RightFoot
				{
					OFFSET -2.47159 -6.79060 0.00000
					CHANNELS 3 Zrotation Yrotation Xrotation
					JOINT RightToeBase
					{
						OFFSET -0.26223 -0.72048 2.36007
						CHANNELS 3 Zrotation Yrotation Xrotation
						End Site
						{
							OFFSET -0.00000 -0.00000 1.23343
						}
					}
				}
			}
		}
	}
	JOINT LowerBack
	{
		OFFSET 0 0 0
		CHANNELS 3 Zrotation Yrotation Xrotation
		JOINT Spine
		{
			OFFSET 0.02089 1.99248 -0.22512
			CHANNELS 3 Zrotation Yrotation Xrotation
			JOINT Spine1
			{
				OFFSET 0.01476 2.01356 -0.03079
				CHANNELS 3 Zrotation Yrotation Xrotation
				JOINT Neck
				{
					OFFSET 0 0 0
					CHANNELS 3 Zrotation Yrotation Xrotation
					JOINT Neck1
					{
						OFFSET 0.04846 1.65098 0.06663
						CHANNELS 3 Zrotation Yrotation Xrotation
						JOINT Head
						{
							OFFSET -0.06061 1.60634 -0.07565
							CHANNELS 3 Zrotation Yrotation Xrotation
							End Site
							{
								OFFSET -0.02954 1.73562 -0.03642
							}
						}
					}
				}
				JOINT LeftShoulder
				{
					OFFSET 0 0 0
					CHANNELS 3 Zrotation Yrotation Xrotation
					JOINT LeftArm
					{
						OFFSET 3.45234 1.47051 -0.06993
						CHANNELS 3 Zrotation Yrotation Xrotation
						JOINT LeftForeArm
						{
							OFFSET 5.49313 -0.00000 0.00000
							CHANNELS 3 Zrotation Yrotation Xrotation
							JOINT LeftHand
							{
								OFFSET 3.29037 -0.00000 0.00000
								CHANNELS 3 Zrotation Yrotation Xrotation
								JOINT LeftFingerBase
								{
									OFFSET 0 0 0
									CHANNELS 3 Zrotation Yrotation Xrotation
									JOINT LeftHandIndex1
									{
										OFFSET 0.72966 -0.00000 0.00000
										CHANNELS 3 Zrotation Yrotation Xrotation
										End Site
										{
											OFFSET 0.58827 -0.00000 0.00000
										}
									}
								}
								JOINT LThumb
								{
									OFFSET 0 0 0
									CHANNELS 3 Zrotation Yrotation Xrotation
									End Site
									{
										OFFSET 0.59725 -0.00000 0.59725
									}
								}
							}
						}
					}
				}
				JOINT RightShoulder
				{
					OFFSET 0 0 0
					CHANNELS 3 Zrotation Yrotation Xrotation
					JOINT RightArm
					{
						OFFSET -3.41935 1.44327 0.20453
						CHANNELS 3 Zrotation Yrotation Xrotation
						JOINT RightForeArm
						{
							OFFSET -5.23684 -0.00000 0.00000
							CHANNELS 3 Zrotation Yrotation Xrotation
							JOINT RightHand
							{
								OFFSET -3.38251 -0.00000 0.00000
								CHANNELS 3 Zrotation Yrotation Xrotation
								JOINT RightFingerBase
								{
									OFFSET 0 0 0
									CHANNELS 3 Zrotation Yrotation Xrotation
									JOINT RightHandIndex1
									{
										OFFSET -0.69145 -0.00000 0.00000
										CHANNELS 3 Zrotation Yrotation Xrotation
										End Site
										{
											OFFSET -0.55747 -0.00000 0.00000
										}
									}
								}
								JOINT RThumb
								{
									OFFSET 0 0 0
									CHANNELS 3 Zrotation Yrotation Xrotation
									End Site
									{
										OFFSET -0.56598 -0.00000 0.56598
									}
								}
							}
						}
					}
				}
			}
		}
	}
}
MOTION
Frames: 16
Frame Time: 0.125
0.00 0.00 0.00 0 0 0 0 0 0 -21 0 0 0 0 0 0 0 0 0 0 0 0 0 0 21 0 0 0 0 0 0 0 0 0 0 0 0 0 0 0 0 0 0 0 0 0 0 -16 0 0 21 0 0 11 0 0 0 -8 0 0 0 0 0 0 0 0 0 0 0 0 0 0 0 0 0 0 0 0 8 0 0 0 0 0 0 0 0 0 0 0 0 0 0 0 0 0
0.00 0.00 0.00 -21.9948 79.7153 -14.1884 0.0000 0.0000 0.0000 -11.2124 -14.5950 -25.8350 4.8572 13.2212 40.2021 -0.2744 -23.9831 -14.9662 0.9907 6.3350 17.7597 0.0000 0.0000 0.0000 24.3154 11.3836 10.2161 -0.3133 -3.5982 9.9490 -1.5810 0.9182 -23.5107 -0.3900 4.0100 -11.1047 -2.4610 0.3892 16.6512 0.6605 0.5311 7.3245 1.9882 0.3588 -1.5520 -0.9340 3.2880 -4.9754 -2.4541 4.4731 -7.0758 -0.5889 2.3569 -1.3182 0.0000 -0.0000 0.0000 -83.8985 15.2673 22.2745 25.7927 -37.0032 -8.7626 -0.0000 -0.0000 2.9200 0.0205 11.6199 0.0041 -7.1250 0.0000 -0.0000 -23.6205 40.3828 2.8741 0.0000 -0.0000 0.0000 71.3690 -4.7090 49.8585 -39.3232 47.6638 -17.9373 0.0000 -0.0000 -3.5385 -7.5015 -15.7662 2.0491 7.1250 -0.0000 -0.0000 18.6679 -45.0193 -0.0092
0.00 0.00 0.00 -12.4647 80.6100 -3.6334 0.0000 0.0000 0.0000 -15.2506 -9.4718 -20.7103 3.9545 12.0996 36.0853 -0.3124 -27.1355 -17.2370 1.2587 7.1122 20.0483 0.0000 0.0000 0.0000 20.0047 6.6060 4.5871 -1.6446 -8.0829 22.9661 -1.1192 10.6194 -19.2149 -1.1915 6.9266 -19.4982 -8.4021 1.6520 16.5683 -3.2395 1.1100 6.1867 1.1010 0.6581 -2.7126 -3.7688 1.3298 -6.3926 4.3197 2.3436 -6.9990 2.0230 1.3109 -1.2120 0.0000 -0.0000 0.0000 -78.1286 8.6331 17.0186 25.3046 -36.5137 -8.4705 -0.0000 -0.0000 2.9322 0.2090 10.2508 0.0372 -7.1250 0.0000 -0.0000 -23.0148 39.1419 3.5447 0.0000 -0.0000 0.0000 73.5420 -7.2361 53.7149 -26.5675 37.7636 -9.2330 0.0000 -0.0000 -0.4789 -5.9939 -15.7638 1.6339 7.1250 -0.0000 -0.0000 19.9980 -44.8412 0.0817
0.00 0.00 0.00 -17.9229 81.3547 -9.1366 0.0000 0.0000 0.0000 -15.6085 -10.0337 -16.7134 3.5649 11.5577 34.1848 -0.0110 -26.7855 -18.8629 1.4413 7.5898 21.4750 0.0000 0.0000 0.0000 18.7719 7.6396 -2.2952 -4.2378 -12.4703 37.4167 0.1720 18.2046 -11.1688 -0.5358 4.6903 -13.0274 -8.7300 1.3327 16.9336 -3.2576 0.6283 6.3214 1.3507 0.4228 -2.7192 -3.3488 1.1909 -6.3719 4.5093 2.1675 -7.3864 2.0087 1.2157 -1.3283 0.0000 0.0000 0.0000 -76.7516 3.7825 21.5314 27.7436 -38.8791 -9.9623 -0.0000 -0.0000 2.2695 1.7559 9.7738 0.2982 -7.1250 0.0000 -0.0000 -21.6040 38.8261 3.4793 0.0000 0.0000 0.0000 72.4827 -9.2622 52.5350 -25.7317 36.9426 -8.7259 0.0000 -0.0000 -2.0297 -5.6479 -16.4662 1.6057 7.1250 -0.0000 -0.0000 20.5674 -45.4602 -0.2440
0.00 0.00 0.00 -13.7875 83.0108 -3.8882 0.0000 0.0000 0.0000 -17.5370 -4.6813 3.6017 2.3263 9.5150 27.4201 -2.7296 -28.2770 5.0658 0.7328 5.4692 15.2517 0.0000 0.0000 0.0000 15.6866 23.9021 -18.5839 -3.4572 -11.4007 33.6436 -0.7595 14.3209 -17.2901 -0.0164 0.8262 -2.2708 -2.3343 -2.4119 17.2494 4.2621 -3.0545 4.4422 6.5057 -1.3847 -4.5166 4.6833 3.0833 -4.9235 -10.6360 3.6179 -8.6546 -4.3550 1.9465 -1.6194 0.0000 -0.0000 0.0000 -80.8606 17.5686 30.9916 52.2195 -53.8524 -27.9567 -0.0000 0.0000 -4.4726 5.4735 10.5509 1.0052 -7.1250 0.0000 -0.0000 -18.7540 39.8585 2.4779 0.0000 -0.0000 0.0000 65.7469 -14.2954 41.7826 -23.5089 34.6406 -7.4256 0.0000 -0.0000 -0.1045 -7.8777 -16.9853 2.3146 7.1250 -0.0000 -0.0000 18.7792 -46.2241 -0.5878
0.00 0.00 0.00 -29.0537 83.9338 -20.2073 0.0000 0.0000 0.0000 -14.3668 -4.8211 -1.8740 5.2066 13.6128 41.7080 -2.5036 -26.7473 12.8060 0.2507 3.2220 8.8975 0.0000 0.0000 0.0000 19.3589 24.5371 -14.1686 -3.9417 -12.0824 36.0240 -1.4278 13.2268 -21.9653 -0.0093 0.6230 -1.7120 1.3050 -2.7289 18.0357 5.1697 -2.6759 4.7832 5.3576 -1.1814 -4.7535 3.3607 2.3481 -4.4533 -10.1802 2.6463 -9.8489 -3.9889 1.5485 -2.2052 -0.0000 -0.0000 0.0000 -83.4798 23.0788 29.8560 47.3903 -51.8872 -24.1051 -0.0000 0.0000 -2.8825 5.7754 11.0605 1.1116 -7.1250 0.0000 -0.0000 -18.6468 40.3683 2.2179 -0.0000 -0.0000 0.0000 67.4069 -14.8888 39.0608 -23.5313 34.6647 -7.4383 0.0000 0.0000 0.2993 -13.2107 -16.8360 3.8896 7.1250 -0.0000 -0.0000 13.8868 -46.7616 -0.6152
0.00 0.00 0.00 -40.1727 83.0663 -31.6106 0.0000 0.0000 0.0000 -10.7288 -4.7764 -10.8428 9.6995 17.2374 58.4791 -2.2674 -26.1072 4.0444 0.2276 -3.0709 -8.4762 0.0000 0.0000 0.0000 23.1642 24.0349 -9.4375 -3.9376 -12.0769 36.0047 -1.9973 12.4325 -25.5638 -0.0242 1.0052 -2.7633 5.3870 -1.1241 18.1241 4.8717 0.1748 4.6480 2.0934 0.1949 -5.1601 5.6419 0.2582 -1.0404 -10.9168 -0.3516 -12.0546 -4.2760 0.1433 -3.3968 0.0000 0.0000 0.0000 -81.7903 30.7661 31.9562 42.3891 -49.4234 -20.2356 -0.0000 0.0000 -0.9818 5.0206 10.5627 0.9226 -7.1250 0.0000 -0.0000 -19.1364 39.8319 2.5461 0.0000 0.0000 0.0000 72.0274 -17.8337 34.7464 -24.2204 35.3965 -7.8339 0.0000 0.0000 1.3995 -16.2100 -17.3436 4.9530 7.1250 -0.0000 -0.0000 11.2710 -47.6722 -0.7522
0.00 0.00 0.00 -39.0720 84.5233 -29.5507 0.0000 0.0000 0.0000 -9.1453 -9.4244 -27.4362 11.7606 18.2876 65.2279 -0.7240 -26.3844 -13.7730 0.4075 -4.0980 -11.3524 0.0000 0.0000 0.0000 24.0408 19.6087 0.0177 -2.3385 -9.5382 27.4938 -1.7843 12.8635 -24.2745 -0.0773 1.7933 -4.9347 5.3232 1.4698 18.5461 4.1713 3.5241 4.3339 0.6206 1.7961 -5.6603 5.9959 -0.8778 -1.9935 -11.1646 -1.7844 -9.6441 -4.3539 -0.6577 -2.6498 0.0000 0.0000 0.0000 -78.7229 39.9964 32.4119 33.8252 -43.9548 -13.9916 -0.0000 -0.0000 2.4762 -8.6410 9.7502 -1.4742 -7.1250 0.0000 -0.0000 -29.8484 37.9423 5.8275 0.0000 0.0000 0.0000 74.9528 -19.6563 33.2088 -26.3787 37.5802 -9.1176 0.0000 0.0000 0.6473 -14.4064 -17.2743 4.3620 7.1250 -0.0000 -0.0000 12.9275 -47.3553 -0.7635
0.00 0.00 0.00 -65.3977 85.9415 -55.1366 0.0000 0.0000 0.0000 -7.2414 -16.4946 -33.3760 7.1679 15.4716 49.5064 0.3191 -21.6586 -17.5934 0.5372 -4.6960 -13.0436 0.0000 0.0000 0.0000 24.6239 12.6803 9.0728 -0.6424 -5.1277 14.2731 -0.4063 13.2470 -13.7470 -0.1061 2.1007 -5.7839 5.4088 2.2099 18.7861 3.2446 4.4469 4.0660 -0.6399 2.2141 -5.9696 4.9186 -1.2034 -3.7995 -9.3155 -1.9487 -5.9188 -3.9350 -0.9047 -1.3889 -0.0000 -0.0000 0.0000 -74.7196 43.1781 32.2207 33.6551 -43.8275 -13.8737 -0.0000 -0.0000 3.4533 -11.9320 9.3803 -1.9726 -7.1250 0.0000 -0.0000 -32.1867 37.3226 6.9934 -0.0000 -0.0000 0.0000 75.4748 -21.7607 36.1162 -30.5616 41.3699 -11.7790 0.0000 -0.0000 -3.4890 -12.7286 -16.7242 3.7191 7.1250 -0.0000 -0.0000 14.2918 -46.5886 -0.5717
0.00 0.00 0.00 -50.3247 82.4572 -40.8604 0.0000 0.0000 0.0000 -5.7073 -15.2103 -33.3800 4.6991 13.0367 39.5059 0.0767 -18.2263 -13.5056 0.0141 -0.7656 -2.1041 0.0000 0.0000 0.0000 25.9339 9.8609 11.7100 -1.9426 -8.7455 25.0023 0.6969 14.9418 2.1170 -0.4685 4.3902 -12.1771 1.3532 3.6458 18.0869 -0.9380 5.2400 5.2960 -2.8704 2.6945 -4.1962 3.1943 -2.0562 -3.7188 1.1965 -2.7030 -5.2880 -0.1618 -1.3814 -1.0323 -0.0000 -0.0000 0.0000 -71.0401 37.3780 23.7468 35.8474 -45.4079 -15.4138 -0.0000 0.0000 -2.3911 -6.8474 9.6072 -1.1481 -7.1250 0.0000 -0.0000 -28.4142 37.9716 5.4588 -0.0000 -0.0000 0.0000 77.5280 -19.8704 41.4883 -34.2108 44.2403 -14.2599 0.0000 -0.0000 -7.6938 -13.1536 -14.0847 3.2550 7.1250 -0.0000 -0.0000 13.1085 -44.0284 0.3201
0.00 0.00 0.00 -19.3986 81.7485 -12.8794 0.0000 0.0000 0.0000 -11.7619 -12.1587 -26.7178 5.8928 14.3236 44.5499 1.0547 -18.8950 -21.1810 0.0003 -0.1163 -0.3195 0.0000 0.0000 0.0000 20.6337 11.0901 0.7675 -7.7090 -15.9010 51.5078 0.4681 15.7702 -5.1391 -0.8639 5.9267 -16.5720 -4.4115 3.1582 19.6013 -3.3491 3.5177 6.2665 -1.8871 1.9115 -4.1968 3.0541 -1.1799 -1.9570 2.5407 -1.3581 -6.4443 0.2905 -0.7472 -1.6708 0.0000 -0.0000 0.0000 -71.2485 26.3341 21.6345 32.5223 -42.9597 -13.0954 -0.0000 -0.0000 5.5232 -2.9070 6.5654 -0.3327 -7.1250 0.0000 -0.0000 -24.3719 35.5335 6.1356 0.0000 -0.0000 0.0000 78.7093 -17.8329 41.4053 -31.9780 42.5297 -12.7260 0.0000 -0.0000 -6.6771 -19.7849 -16.1339 5.7084 7.1250 -0.0000 -0.0000 7.5898 -46.9253 -0.3626
0.00 0.00 0.00 -14.6538 81.8749 -9.5315 0.0000 0.0000 0.0000 -16.1909 -6.2780 -3.8023 3.0231 10.7324 31.3827 0.3869 -20.5875 -17.4349 0.0891 -1.9249 -5.2980 0.0000 0.0000 0.0000 16.9315 14.5933 -24.8792 -3.5550 -11.5434 34.1353 -0.9624 11.2780 -18.0709 -0.8466 5.8688 -16.4042 -4.8423 -0.3361 20.3553 -1.0900 -1.2101 5.0336 1.8719 -0.4158 -5.8203 4.8521 1.3307 -1.3770 -2.0602 1.7751 -6.9226 -1.5003 0.8454 -1.8777 0.0000 0.0000 0.0000 -71.1289 12.4704 32.0939 75.2162 -59.1578 -47.2331 -0.0000 0.0000 -7.1742 14.5764 3.2949 0.8563 -7.1250 0.0000 -0.0000 -9.7883 33.2677 2.8504 0.0000 0.0000 0.0000 72.9194 -21.6147 38.5641 -28.5220 39.5924 -10.4547 0.0000 -0.0000 -3.4015 -6.5832 -17.6504 2.0041 7.1250 -0.0000 -0.0000 20.1998 -46.6881 -0.8765
0.00 0.00 0.00 -3.3191 85.0154 0.4863 0.0000 0.0000 0.0000 -16.4115 -4.7852 -1.3846 4.2009 12.4231 37.2455 -1.8300 -25.7894 -2.6269 0.2786 -3.3947 -9.3797 0.0000 0.0000 0.0000 15.1464 17.3169 -23.7450 -2.2572 -9.3824 26.9991 -0.6950 5.8507 -14.8574 -0.1954 2.8466 -7.8519 -3.7490 -1.3774 19.2234 0.5439 -2.2348 4.6333 3.2264 -0.9416 -5.5662 7.0054 1.7603 -1.6254 -6.8611 2.1208 -5.3984 -3.4806 1.0507 -1.2830 -0.0000 -0.0000 0.0000 -72.0506 14.7245 32.8448 81.3321 -59.7142 -52.5006 -0.0000 0.0000 -10.9732 11.7883 3.7166 0.7751 -7.1250 0.0000 -0.0000 -12.0903 33.5899 3.4480 -0.0000 -0.0000 0.0000 71.7275 -24.4212 35.0313 -28.1064 39.2140 -10.1909 0.0000 -0.0000 -4.0660 -6.7246 -17.7511 2.0588 7.1250 -0.0000 -0.0000 20.1133 -46.8011 -0.9307
0.00 0.00 0.00 1.5499 80.6332 8.2006 0.0000 0.0000 0.0000 -18.8467 -5.2152 -1.7543 1.2475 7.0815 19.9571 1.9064 -16.0112 -25.6047 0.0630 1.6197 4.4559 0.0000 0.0000 0.0000 15.9803 24.5332 -6.5334 -2.5943 -10.0073 29.0005 -1.3831 10.7745 -21.2457 -0.1227 2.2584 -6.2204 -0.0792 -1.4592 17.1783 2.0872 -1.5012 6.3332 2.5255 -0.6251 -2.7987 8.8536 2.7947 1.3566 -15.6724 3.6113 -3.5306 -6.2383 1.9914 -0.7837 0.0000 -0.0000 0.0000 -75.6480 16.0295 25.6565 49.2727 -52.6979 -25.5945 -0.0000 0.0000 -1.0321 2.0471 3.8821 0.1387 -7.1250 0.0000 -0.0000 -19.8321 33.3312 5.9833 0.0000 -0.0000 0.0000 75.5336 -20.1985 37.6153 -28.0221 39.1366 -10.1376 0.0000 -0.0000 -2.0544 -14.3080 -16.7116 4.1945 7.1250 -0.0000 -0.0000 12.8385 -46.7818 -0.5737
0.00 0.00 0.00 -2.9407 82.2149 11.5809 0.0000 0.0000 0.0000 -15.1665 -4.4906 -16.8410 4.2822 12.5267 37.6216 0.6023 -26.0778 -22.0301 0.0483 -1.4185 -3.9012 0.0000 0.0000 0.0000 16.1228 25.6514 -10.8222 -2.8610 -10.4665 30.5010 -2.0722 11.3882 -25.9314 -0.0146 0.7805 -2.1450 4.9387 -2.0531 19.7506 3.7480 -1.0858 5.9206 1.4433 -0.3827 -4.6613 7.3105 2.1631 -0.5143 -14.5127 1.9155 -13.1124 -5.7720 1.4155 -3.5075 0.0000 -0.0000 0.0000 -84.6675 24.3538 30.1761 30.8352 -41.5986 -11.9603 -0.0000 -0.0000 3.0825 6.8418 5.9874 0.7170 -7.1250 0.0000 -0.0000 -16.4941 35.5836 3.9520 0.0000 -0.0000 0.0000 78.2460 -22.5168 35.5655 -24.4941 35.6824 -7.9929 0.0000 0.0000 3.0831 -8.8010 -15.4517 2.3621 7.1250 -0.0000 -0.0000 17.4059 -44.8702 0.0575
0.00 0.00 0.00 -121.3820 83.8861 -115.4260 0.0000 0.0000 0.0000 -4.4979 -18.4189 -32.4495 2.2512 9.3708 26.9623 0.9088 -14.7814 -18.6204 1.0013 -6.3677 -17.8552 0.0000 0.0000 0.0000 27.8342 8.3845 6.7398 -0.9868 -6.3229 17.7242 -0.7917 7.9777 -15.9958 -0.1895 2.8036 -7.7323 3.9856 3.4392 19.8036 3.6466 5.9139 3.9559 0.1685 2.9417 -6.7551 8.2499 -3.0517 -1.6057 -11.2791 -4.5904 -7.2289 -4.6892 -2.1764 -2.3071 0.0000 0.0000 0.0000 -76.2883 45.7736 36.7692 35.5622 -45.2094 -15.2109 -0.0000 -0.0000 4.3840 -12.1873 7.6370 -1.6441 -7.1250 0.0000 -0.0000 -31.7155 35.7820 8.2652 0.0000 0.0000 0.0000 70.9184 -20.3861 40.8988 -59.3415 56.1319 -33.7938 0.0000 -0.0000 -3.6562 -27.6438 -14.7139 7.5776 7.1250 -0.0000 -0.0000 -0.0982 -46.4919 0.0036
